<svg height="441pt" viewBox="-29 0 441 441.67481" width="441pt" xmlns="http://www.w3.org/2000/svg"><path d="m87.242188 82.5625c-4.289063 4.289062-4.949219 11.007812-1.582032 16.050781 3.371094 5.039063 9.832032 7 15.433594 4.679688 5.601562-2.320313 8.785156-8.273438 7.601562-14.222657-1.183593-5.945312-6.402343-10.230468-12.464843-10.230468-3.375-.007813-6.613281 1.332031-8.992188 3.726562zm0 0"/><path d="m58.058594 13.695312c47.761718 15.265626 85.4375 52.296876 101.523437 99.785157 1.234375 3.664062 5.207031 5.632812 8.867188 4.398437 3.664062-1.238281 5.632812-5.207031 4.398437-8.871094-17.519531-51.714843-58.550781-92.039062-110.558594-108.660156-2.390624-.785156-5.019531-.222656-6.882812 1.46875s-2.675781 4.253906-2.128906 6.710938c.550781 2.457031 2.375 4.429687 4.78125 5.164062zm0 0"/><path d="m62.566406 144.390625c1.21875 2.203125 3.527344 3.578125 6.046875 3.605469s4.855469-1.296875 6.125-3.472656c1.265625-2.175782 1.269531-4.867188.003907-7.042969-13.925782-24.390625-38.578126-40.742188-66.460938-44.09375-2.507812-.339844-5 .695312-6.527344 2.714843-1.523437 2.015626-1.8437498 4.699219-.835937 7.015626 1.011719 2.320312 3.191406 3.914062 5.707031 4.167968 23.46875 2.820313 44.21875 16.582032 55.941406 37.105469zm0 0"/><path d="m215.480469 117.875c1.761719.597656 3.683593.46875 5.347656-.359375 1.664063-.824219 2.933594-2.277344 3.523437-4.039063 16.085938-47.488281 53.761719-84.515624 101.523438-99.78125 2.40625-.738281 4.230469-2.710937 4.777344-5.167968.550781-2.457032-.261719-5.015625-2.125-6.707032-1.863282-1.691406-4.492188-2.253906-6.882813-1.46875-52.011719 16.617188-93.039062 56.941407-110.558593 108.65625-1.234376 3.660157.730468 7.632813 4.394531 8.867188zm0 0"/><path d="m375.648438 93.386719c-27.882813 3.351562-52.535157 19.703125-66.460938 44.09375-1.265625 2.175781-1.265625 4.867187.003906 7.042969 1.265625 2.175781 3.605469 3.5 6.125 3.472656 2.515625-.027344 4.824219-1.402344 6.046875-3.605469 11.722657-20.523437 32.472657-34.285156 55.9375-37.101563 2.515625-.257812 4.699219-1.851562 5.707031-4.167968 1.011719-2.320313.691407-5-.835937-7.019532-1.523437-2.015624-4.019531-3.050781-6.523437-2.710937zm0 0"/><path d="m182.980469 50.847656c4.964843 4.964844 13.007812 4.960938 17.972656 0 4.964844-4.964844 4.964844-13.011718 0-17.972656-4.964844-4.964844-13.007813-4.964844-17.972656 0-4.964844 4.960938-4.964844 13.011719 0 17.972656zm0 0"/><path d="m274.777344 100.234375c4.964844 4.964844 13.011718 4.964844 17.976562 0 4.964844-4.960937 4.964844-13.011719 0-17.972656-4.964844-4.964844-13.011718-4.964844-17.976562 0-4.960938 4.960937-4.960938 13.011719 0 17.972656zm0 0"/><path d="m206.265625 178.117188 101.773437 59.667968 41.226563-28.3125-92.832031-58.28125zm0 0"/><path d="m256.707031 356.046875c-1.167969 0-2.316406-.289063-3.34375-.847656l-54.398437-29.550781v116.027343c.558594-.265625 1.097656-.5625 1.621094-.890625l91.683593-54.808594c5.484375-3.445312 8.777344-9.496093 8.695313-15.96875v-40.808593l-40.710938 25.773437c-1.046875.699219-2.285156 1.074219-3.546875 1.074219zm0 0"/><path d="m177.6875 178.128906-50.1875-26.9375-92.800781 58.257813 41.582031 28.34375zm0 0"/><path d="m206.238281 313.664062 50.207031 27.277344 48.976563-30.867187 43.828125-27.40625-41.222656-28.3125zm0 0"/><path d="m191.972656 185.96875-102.128906 60.085938 102.128906 59.71875 102.492188-59.71875zm0 0"/><path d="m177.714844 313.652344-101.421875-59.300782-41.574219 28.339844 43.769531 27.371094 49 30.878906zm0 0"/><path d="m127.214844 356.046875c-1.324219 0-2.621094-.371094-3.742188-1.078125l-40.507812-25.511719v40.535157c-.003906 6.53125 3.375 12.597656 8.925781 16.027343l91.359375 54.742188c.554688.328125 1.128906.628906 1.714844.890625v-116.003906l-54.398438 29.554687c-1.027344.554687-2.179687.847656-3.351562.84375zm0 0"/></svg>